# File produced by Open Asset Import Library (http://www.assimp.sf.net)
# (assimp v3.1.187496374)

mtllib apex-logo-model.obj.mtl

# 116 vertex positions
v  2.21663 3.14797 -2.58899
v  2.76034 2.63155 -2.58899
v  2.21201 2.63155 -2.58899
v  2.76491 3.1427 -2.58899
v  2.76491 3.1427 -1.89525
v  2.76034 2.63155 -1.89525
v  2.21201 2.63155 -1.89525
v  2.21663 3.14797 -1.89525
v  3.82896 1.15194 -2.58899
v  3.82047 1.82461 -1.89525
v  3.82896 1.15194 -1.89525
v  3.82047 1.82461 -2.58899
v  4.44808 1.52182 -1.89525
v  4.44808 1.52182 -2.58899
v  6.26581 2.89567 -1.89472
v  5.83577 2.48769 -2.58899
v  5.83577 2.48769 -1.89472
v  6.26581 2.89567 -2.58899
v  7.39035 1.71035 -2.58899
v  6.96031 1.30236 -2.58899
v  6.96031 1.30236 -1.89472
v  7.39035 1.71035 -1.89472
v  6.02046 1.81242 -2.58899
v  6.02046 2.29185 -1.89525
v  6.02046 1.81242 -1.89525
v  6.02046 2.29185 -2.58899
v  5.15051 1.81242 -1.89525
v  4.51551 1.89554 -1.89525
v  4.51551 2.29185 -1.89525
v  5.10149 1.55903 -1.89525
v  5.15051 1.38062 -1.89525
v  4.51551 1.1421 -1.89525
v  5.75694 1.38062 -1.89525
v  5.15051 0.907548 -1.89525
v  4.51551 -0.00622862 -1.89525
v  5.15051 0.46146 -1.89525
v  5.75694 0.907548 -1.89525
v  6.02046 0.46146 -1.89525
v  6.02046 -0.00622862 -1.89525
v  5.15051 1.81242 -2.58899
v  5.10149 1.55903 -2.58899
v  5.15051 1.38062 -2.58899
v  4.51551 1.1421 -2.58899
v  4.51551 1.89554 -2.58899
v  5.75694 1.38062 -2.58899
v  5.15051 0.46146 -2.58899
v  4.51551 -0.00622862 -2.58899
v  5.15051 0.907548 -2.58899
v  5.75694 0.907548 -2.58899
v  6.02046 0.162147 -2.58899
v  6.02046 0.46146 -2.58899
v  5.85153 -0.00622862 -2.58899
v  6.02046 -0.00622862 -2.58899
v  7.3785 0.679396 -2.58899
v  6.96031 1.09895 -2.58899
v  4.77144 -1.08282 -2.58899
v  5.18962 -1.50237 -2.58899
v  4.51551 2.29185 -2.58899
v  6.96031 1.09895 -1.89472
v  4.77144 -1.08282 -1.89472
v  7.3785 0.679396 -1.89472
v  5.18962 -1.50237 -1.89472
v  7.0595 1.19781 -2.58899
v  7.90773 1.18625 -2.58899
v  7.47769 0.778263 -2.58899
v  7.48954 1.6058 -2.58899
v  7.48954 1.6058 -1.89472
v  7.90773 1.18625 -1.89472
v  7.47769 0.778263 -1.89472
v  7.0595 1.19781 -1.89472
v  7.58258 0.667703 -2.58899
v  9.08994 -0.0598562 -2.58899
v  8.6599 -0.467845 -2.58899
v  8.01262 1.07569 -2.58899
v  8.6599 -0.467845 -1.89472
v  7.58258 0.667703 -1.89472
v  8.01262 1.07569 -1.89472
v  9.08994 -0.0598562 -1.89472
v  9.00848 2.28342 -2.58899
v  8.01262 1.2908 -1.89472
v  8.01262 1.2908 -2.58899
v  9.00848 2.28342 -1.89472
v  7.59443 1.71035 -1.89472
v  8.59029 2.70297 -1.89472
v  7.59443 1.71035 -2.58899
v  8.59029 2.70297 -2.58899
v  1.85189 0 -2.58899
v  1.38675 0 -1.89525
v  1.38675 0 -2.58899
v  1.85189 0 -1.89525
v  2.20749 2.29711 -2.58899
v  2.20749 2.29711 -1.89525
v  2.25017 1.11474 -2.58899
v  2.48209 1.76383 -2.58899
v  2.75577 2.29185 -2.58899
v  2.66371 0.692463 -2.58899
v  2.25017 0.692463 -2.58899
v  2.66371 1.11474 -2.58899
v  2.97732 -0.00606798 -2.58899
v  3.52257 -0.00622862 -2.58899
v  2.25017 1.11474 -1.89525
v  2.48209 1.76383 -1.89525
v  2.75577 2.29185 -1.89525
v  2.97732 -0.00606798 -1.89525
v  3.52257 -0.00622862 -1.89525
v  2.66371 1.11474 -1.89525
v  2.25017 0.692463 -1.89525
v  2.66371 0.692463 -1.89525
v  3.52257 2.29185 -2.58899
v  3.52257 2.29185 -1.89525
v  3.82896 -0.00622862 -2.58899
v  3.82896 -0.00622862 -1.89525
v  4.93004 1.55903 -2.58899
v  4.93004 1.55903 -1.89525
v  3.82896 0.808036 -2.58899
v  3.82896 0.808036 -1.89525

# 0 UV coordinates

# 54 vertex normals
vn 0 0 -0.0254
vn 0.025399 -0.000227219 0
vn 0 0.0254 0
vn -0.025399 0.000227389 0
vn 0.000243881 0.0253988 0
vn 0 0 0.0254
vn 0.025398 0.000320555 -7.79188e-20
vn -0.0130271 0.0218049 0
vn -0.0110367 -0.0228769 5.91762e-18
vn -0.0174819 0.0184267 0
vn -0.0184267 -0.0174819 -8.05246e-18
vn 0.0184267 0.0174819 -1.40199e-18
vn 0.0174819 -0.0184267 -7.00992e-18
vn 0.0254 1.91235e-17 1.32158e-17
vn 0 -0.0254 0
vn 3.28706e-18 -3.9325e-18 -0.0254
vn -1.08549e-16 1.08903e-16 -0.0254
vn 7.67731e-18 -8.01502e-18 -0.0254
vn 0.0254 -4.0507e-17 -3.13102e-18
vn 0.0254 0 0
vn -0.0254 0 0
vn -0.012649 -0.0220264 -0
vn -0.0147254 0.020696 0
vn -1.5523e-18 -0.0254 6.14441e-19
vn -0.0179313 0.0179897 1.09967e-17
vn 0.0179897 0.0179313 2.01232e-17
vn -0.0179897 -0.0179313 0
vn 0.0179313 -0.0179897 0
vn 0.0179897 0.0179313 2.42346e-33
vn 0.0174819 -0.0184267 -3.50496e-19
vn -0.0179897 -0.0179313 2.42346e-33
vn -0.0174819 0.0184267 2.49043e-33
vn -0.0184267 -0.0174819 1.21863e-17
vn 0.0174819 -0.0184267 -1.98795e-16
vn 0.0184267 0.0174819 -1.76504e-17
vn 0.0174819 -0.0184267 0
vn 0.0179313 -0.0179897 1.93877e-32
vn 0.0179897 0.0179313 4.77501e-18
vn 0.0179897 0.0179313 0
vn -0.0179313 0.0179897 5.47494e-18
vn -0.0239191 0.00854609 0
vn 0 6.60788e-18 -0.0254
vn 0.0239191 -0.00854609 -6.51215e-19
vn 0.0239191 -0.00854609 3.12319e-18
vn -0 -6.60788e-18 0.0254
vn 0.0240941 0.00803953 2.45046e-18
vn -7.48343e-06 -0.0254 -1.32178e-17
vn -0.0244605 -0.00684426 -9.65286e-18
vn -0.0244605 -0.00684426 -9.15911e-18
vn 0 0.0254 6.60788e-18
vn 0 -0.0254 -1.32158e-17
vn 0 -0.0254 -6.60788e-18
vn -0.0117301 -0.0225292 7.03086e-19
vn 0.0143121 -0.0209839 2.71393e-19

# Mesh 'SketchUp' with 213 faces
g SketchUp
usemtl ID4
f  1//1 2//1 3//1
f  2//1 1//1 4//1
f  2//2 5//2 6//2
f  5//2 2//2 4//2
f  6//3 3//3 7//3
f  3//3 6//3 2//3
f  1//4 7//4 8//4
f  7//4 1//4 3//4
f  5//5 1//5 8//5
f  1//5 5//5 4//5
f  5//6 7//6 6//6
f  7//6 5//6 8//6
f  9//7 10//7 11//7
f  10//7 9//7 12//7
f  13//8 9//8 11//8
f  9//8 13//8 14//8
f  14//9 10//9 12//9
f  10//9 14//9 13//9
f  15//10 16//10 17//10
f  16//10 15//10 18//10
f  16//1 19//1 20//1
f  19//1 16//1 18//1
f  16//11 21//11 17//11
f  21//11 16//11 20//11
f  22//6 17//6 21//6
f  17//6 22//6 15//6
f  19//12 15//12 22//12
f  15//12 19//12 18//12
f  19//13 21//13 20//13
f  21//13 19//13 22//13
f  23//14 24//14 25//14
f  24//14 23//14 26//14
f  24//6 27//6 25//6
f  27//6 24//6 28//6
f  28//6 24//6 29//6
f  30//6 31//6 27//6
f  30//6 27//6 28//6
f  32//6 31//6 30//6
f  32//6 33//6 31//6
f  34//6 33//6 32//6
f  35//6 36//6 32//6
f  32//6 36//6 34//6
f  33//6 34//6 37//6
f  35//6 38//6 36//6
f  38//6 35//6 39//6
f  23//15 27//15 40//15
f  27//15 23//15 25//15
f  41//16 42//16 43//16
f  42//16 41//16 40//16
f  40//16 41//16 44//16
f  45//16 43//16 42//16
f  46//16 47//16 43//16
f  46//16 43//16 48//16
f  48//16 43//16 49//16
f  49//16 43//16 45//16
f  50//16 47//16 46//16
f  51//16 50//16 46//16
f  47//16 50//16 52//16
f  50//16 53//17 52//16
f  54//18 53//17 50//16
f  54//18 50//16 55//18
f  53//17 56//18 52//16
f  54//18 56//18 53//17
f  56//18 54//18 57//18
f  40//16 44//16 23//16
f  23//16 44//16 26//16
f  26//16 44//16 58//16
f  24//3 58//3 29//3
f  58//3 24//3 26//3
f  53//19 38//19 39//19
f  38//19 53//19 50//19
f  51//19 38//19 50//19
f  38//3 46//3 36//3
f  46//3 38//3 51//3
f  46//20 34//20 36//20
f  34//20 46//20 48//20
f  49//15 34//15 48//15
f  34//15 49//15 37//15
f  49//20 33//20 37//20
f  33//20 49//20 45//20
f  33//3 42//3 31//3
f  42//3 33//3 45//3
f  42//20 27//20 31//20
f  27//20 42//20 40//20
f  58//21 28//21 29//21
f  28//21 58//21 44//21
f  41//22 28//22 44//22
f  28//22 41//22 30//22
f  30//23 43//23 32//23
f  43//23 30//23 41//23
f  43//21 35//21 32//21
f  35//21 43//21 47//21
f  52//24 35//24 47//24
f  35//24 52//24 39//24
f  39//24 52//24 53//24
f  59//25 56//25 60//25
f  56//25 59//25 52//25
f  52//25 59//25 50//25
f  50//25 59//25 55//25
f  61//6 60//6 62//6
f  60//6 61//6 59//6
f  54//26 59//26 61//26
f  59//26 54//26 55//26
f  56//27 62//27 60//27
f  62//27 56//27 57//27
f  54//28 62//28 57//28
f  62//28 54//28 61//28
f  63//1 64//1 65//1
f  64//1 63//1 66//1
f  64//29 67//29 68//29
f  67//29 64//29 66//29
f  64//30 69//30 65//30
f  69//30 64//30 68//30
f  63//31 69//31 70//31
f  69//31 63//31 65//31
f  67//32 63//32 70//32
f  63//32 67//32 66//32
f  68//6 70//6 69//6
f  70//6 68//6 67//6
f  71//1 72//1 73//1
f  72//1 71//1 74//1
f  71//33 75//33 76//33
f  75//33 71//33 73//33
f  74//34 76//34 71//34
f  76//34 74//34 77//34
f  72//35 77//35 78//35
f  77//35 72//35 74//35
f  72//36 75//36 73//36
f  75//36 72//36 78//36
f  78//6 76//6 75//6
f  76//6 78//6 77//6
f  79//37 80//37 81//37
f  80//37 79//37 82//37
f  82//6 83//6 80//6
f  83//6 82//6 84//6
f  81//38 83//38 80//38
f  83//38 81//38 85//38
f  85//1 79//1 81//1
f  79//1 85//1 86//1
f  79//39 84//39 82//39
f  84//39 79//39 86//39
f  84//40 85//40 83//40
f  85//40 84//40 86//40
f  87//15 88//15 89//15
f  88//15 87//15 90//15
f  91//41 88//41 92//41
f  88//41 91//41 89//41
f  91//1 87//1 89//1
f  87//1 91//1 93//1
f  93//1 91//1 94//1
f  94//1 91//1 95//1
f  93//1 96//42 97//42
f  96//42 93//1 98//1
f  95//1 99//1 98//1
f  95//1 98//1 94//1
f  99//1 95//1 100//1
f  87//43 101//43 90//43
f  101//43 87//43 93//43
f  93//43 102//44 101//43
f  102//44 93//43 94//44
f  103//6 104//6 105//6
f  104//6 103//6 106//6
f  106//6 103//6 102//6
f  92//6 102//6 103//6
f  106//6 107//45 108//45
f  107//45 106//6 101//6
f  101//6 88//6 90//6
f  88//6 101//6 92//6
f  92//6 101//6 102//6
f  103//5 91//5 92//5
f  91//5 103//5 95//5
f  100//46 103//46 105//46
f  103//46 100//46 95//46
f  99//47 105//47 104//47
f  105//47 99//47 100//47
f  98//48 104//48 106//48
f  104//48 98//48 99//48
f  106//48 94//49 98//48
f  94//49 106//48 102//49
f  106//50 93//50 101//50
f  93//50 106//50 98//50
f  93//21 107//21 101//21
f  107//21 93//21 97//21
f  109//21 105//21 110//21
f  105//21 109//21 100//21
f  111//51 105//51 100//51
f  105//51 111//51 112//51
f  96//20 106//20 108//20
f  106//20 96//20 98//20
f  96//52 107//52 97//52
f  107//52 96//52 108//52
f  113//53 110//53 109//53
f  110//53 113//53 114//53
f  113//6 9//6 115//6
f  9//6 113//6 14//6
f  14//6 113//6 12//6
f  12//6 113//6 109//6
f  109//6 115//6 9//6
f  109//6 9//6 12//6
f  115//6 100//6 111//6
f  100//6 115//6 109//6
f  110//1 112//1 105//1
f  112//1 110//1 116//1
f  116//1 110//1 11//1
f  11//1 110//1 10//1
f  114//1 10//1 110//1
f  11//1 114//1 116//1
f  114//1 11//1 13//1
f  114//1 13//1 10//1
f  111//20 116//20 112//20
f  116//20 111//20 115//20
f  113//54 116//54 115//54
f  116//54 113//54 114//54

